<svg width="674" height="98" viewBox="0 0 674 98" fill="none" xmlns="http://www.w3.org/2000/svg">
<g clip-path="url(#clip0_132_61)">
<path d="M0 30.0225H15.9595L27.2503 90.4576H31.6541L39.8325 30.0225H74.599L82.9099 90.4576H87.1977L98.621 30.0225H114.448L102.379 94.7198H67.745L59.4342 34.4095H55.1463L46.8355 94.7198H12.0689L0 30.0225Z" fill="#202020"/>
<path d="M167.757 28.7422C175.803 28.7422 182.094 31.2558 186.63 36.283C191.166 41.3101 193.434 48.5542 193.434 57.9997V94.7198H176.829V60.4352C176.829 54.2527 175.687 49.8188 173.386 47.1647C171.084 44.5107 167.359 43.168 162.161 43.168C155.754 43.168 150.738 45.2913 147.112 49.5534C143.486 53.8 141.665 60.2791 141.665 68.9439V94.7198H124.928V0H141.665V39.1712L138.685 49.1007H142.973C144.347 42.9963 147.145 38.0784 151.334 34.347C155.522 30.6157 161.002 28.7422 167.74 28.7422H167.757Z" fill="#202020"/>
<path d="M213.947 86.9917C207.291 80.981 203.964 72.7689 203.964 62.3711C203.964 51.9733 207.291 43.7769 213.947 37.7505C220.602 31.7398 229.211 28.7266 239.773 28.7266C250.336 28.7266 258.795 31.7398 265.467 37.7505C272.123 43.7613 275.45 51.9733 275.45 62.3711C275.45 72.7689 272.123 80.9654 265.467 86.9917C258.812 93.0024 250.236 96.0156 239.773 96.0156C229.31 96.0156 220.618 93.0024 213.947 86.9917ZM225.751 48.3357C222.373 51.7704 220.685 56.4541 220.685 62.3867C220.685 68.3194 222.373 73.0031 225.751 76.4378C229.128 79.8725 233.797 81.5899 239.757 81.5899C245.717 81.5899 250.402 79.8725 253.762 76.4378C257.14 73.0031 258.828 68.3194 258.828 62.3867C258.828 56.4541 257.14 51.7704 253.762 48.3357C250.385 44.901 245.717 43.1836 239.757 43.1836C233.797 43.1836 229.111 44.901 225.751 48.3357Z" fill="#202020"/>
<path d="M311.839 0C315.647 0 318.743 1.21776 321.11 3.66889C323.494 6.12002 324.686 9.19564 324.686 12.8801C324.686 16.5646 323.494 19.5154 321.11 21.9665C318.726 24.4176 315.647 25.6354 311.839 25.6354C308.031 25.6354 305.035 24.4176 302.568 21.9665C300.101 19.5154 298.876 16.4866 298.876 12.8801C298.876 9.2737 300.101 6.22931 302.568 3.73134C305.035 1.23337 308.131 0 311.839 0Z" fill="#202020"/>
<path d="M340 78.7484C340 90.2547 331.259 96 313.76 96C303.528 96 295.962 94.0016 291.062 89.9892C286.145 85.9925 283.695 80.3252 283.695 73.0343H299.141C299.141 80.497 304.124 84.2127 314.124 84.2127C321.077 84.2127 324.554 82.308 324.554 78.4986C324.554 76.5158 323.676 75.0171 321.921 73.971C320.167 72.9406 317.004 71.7073 312.452 70.2865C311.26 69.9743 310.333 69.6933 309.703 69.4591C301.79 66.8362 296.608 64.7754 294.125 63.2766C289.092 60.1073 286.542 55.7827 286.46 50.3028C286.46 45.1507 288.612 41.1228 292.933 38.2189C297.237 35.3306 303.28 33.8787 311.028 33.8787C320.216 33.8787 327.004 35.877 331.391 39.8894C335.778 43.9018 337.98 48.9133 337.98 54.9396H322.534C322.534 48.7572 318.66 45.6659 310.912 45.6659C304.919 45.6659 301.922 47.3365 301.922 50.6619C301.922 52.4885 302.999 53.9561 305.151 55.0645C307.303 56.173 311.177 57.6406 316.773 59.4672C324.752 62.0901 329.901 64.0728 332.219 65.4155C337.417 68.5848 340 73.0343 340 78.7484Z" fill="#202020"/>
</g>
<g clip-path="url(#clip1_132_61)">
<path d="M346.92 30.744H362.664L373.8 90.776H378.152L386.216 30.744H420.52L428.712 90.776H432.936L444.2 30.744H459.816L447.912 95H413.736L405.544 35.096H401.32L393.128 95H358.824L346.92 30.744ZM464.135 62.104C464.135 52.0347 467.164 44.0987 473.223 38.296C479.282 32.408 487.175 29.464 496.903 29.464C506.631 29.464 514.439 32.28 520.327 37.912C526.3 43.544 529.287 51.1813 529.287 60.824V66.2H479.751C479.922 71.2347 481.543 75.288 484.615 78.36C487.772 81.3467 492.508 82.84 498.823 82.84C507.954 82.84 513.372 79.384 515.079 72.472H531.591C530.482 78.36 527.154 83.8213 521.607 88.856C516.06 93.8053 508.466 96.28 498.823 96.28C487.474 96.28 478.855 93.0373 472.967 86.552C467.079 80.0667 464.135 71.9173 464.135 62.104ZM479.751 56.216H513.671C513.671 52.376 512.263 49.2187 509.447 46.744C506.716 44.2693 502.535 43.032 496.903 43.032C491.271 43.032 487.004 44.312 484.103 46.872C481.202 49.3467 479.751 52.4613 479.751 56.216ZM540.635 77.336C540.635 71.7893 542.47 67.3947 546.139 64.152C549.894 60.9093 556.038 58.776 564.571 57.752L586.843 55.064C586.587 47.0427 581.638 43.032 571.995 43.032C567.472 43.032 563.846 44.056 561.115 46.104C558.47 48.0667 557.147 51.0533 557.147 55.064H541.531C541.531 47.4693 544.347 41.3253 549.979 36.632C555.611 31.8533 562.95 29.464 571.995 29.464C581.296 29.464 588.848 32.024 594.651 37.144C600.454 42.1787 603.355 49.432 603.355 58.904V80.664H612.699V95H599.643C596.827 95 594.651 94.232 593.115 92.696C591.664 91.16 590.939 89.0267 590.939 86.296V84.12L593.499 76.824H589.147C586.075 89.7947 577.456 96.28 563.291 96.28C558.683 96.28 554.758 95.64 551.515 94.36C548.358 93.08 546.054 91.3733 544.603 89.24C543.152 87.1067 542.128 85.1013 541.531 83.224C540.934 81.2613 540.635 79.2987 540.635 77.336ZM557.147 74.52C557.147 76.9947 557.958 78.872 559.579 80.152C561.286 81.3467 563.504 81.944 566.235 81.944C572.464 81.944 577.456 80.408 581.211 77.336C584.966 74.1787 586.843 70.0827 586.843 65.048L567.515 67.48C563.846 67.9067 561.2 68.632 559.579 69.656C557.958 70.5947 557.147 72.216 557.147 74.52ZM622.07 95V39.576C622.07 36.3333 622.923 33.8587 624.63 32.152C626.422 30.4453 628.939 29.6347 632.182 29.72L671.734 30.744V45.08L638.582 44.184V95H622.07Z" fill="#B74752"/>
</g>
<defs>
<clipPath id="clip0_132_61">
<rect width="340" height="96" fill="white"/>
</clipPath>
<clipPath id="clip1_132_61">
<rect width="329" height="96" fill="white" transform="translate(345 2)"/>
</clipPath>
</defs>
</svg>
