<svg width="140" height="48" viewBox="0 0 140 48" fill="none" xmlns="http://www.w3.org/2000/svg">
<path d="M82.8266 0.996314L74.3672 46.6619C74.2941 47.0595 73.9467 47.3474 73.5445 47.3474H55.1906C54.7655 47.3474 54.409 47.0321 54.3588 46.6116L53.9612 43.3256C53.952 43.2617 53.9383 43.1977 53.9155 43.1383L53.3213 41.525C53.2254 41.2599 53.0014 41.0634 52.7272 40.9994L51.7675 40.7709C51.4704 40.7023 51.2373 40.4784 51.1551 40.1859L50.8991 39.2947C50.8032 38.9565 50.5015 38.7143 50.1496 38.6869L48.5866 38.5772L49.1899 37.9831L48.1387 37.5626C47.8599 37.4483 47.6588 37.197 47.6223 36.8953L47.1058 33.0792C47.0876 32.9284 47.1058 32.773 47.1698 32.6313L47.412 32.0692C47.4897 31.8955 47.6223 31.7493 47.7914 31.6579L48.2164 31.4339C48.6369 31.2146 48.7923 30.689 48.5546 30.2731C48.3444 29.8983 48.4403 29.4322 48.7831 29.1763L50.2913 28.0611L49.1899 27.2248L49.167 26.3656L50.6295 25.0539C51.0499 24.6792 50.986 24.0028 50.5061 23.7103L50.1085 23.4726C49.8297 23.3035 49.6743 22.9882 49.7109 22.6683L49.9028 20.8905C49.9531 20.4243 49.6103 20.0084 49.1442 19.9673L47.4852 19.821L48.0884 18.3723L47.1561 18.3311L46.3426 17.641L44.9213 17.1017L43.8838 16.7087L43.0658 17.9655C42.8281 18.3266 42.3528 18.45 41.9689 18.2489L40.6984 17.5725C40.2871 17.3531 39.7798 17.5131 39.565 17.9198L38.7286 19.5057L37.7003 19.3594L36.768 19.2223C36.279 19.1492 35.8311 19.5148 35.8083 20.0084L35.6986 22.1061C35.6803 22.4809 35.4107 22.7962 35.045 22.8785L33.1027 23.3127L33.8385 24.3227C33.8979 24.405 33.9436 24.4964 33.9665 24.5923L34.3778 26.0639C34.4418 26.297 34.4052 26.5438 34.2727 26.7449L32.7325 29.126C32.5086 29.4688 32.568 29.9212 32.8696 30.2L34.8577 32.0189C34.9034 32.0601 34.9491 32.1103 34.9811 32.1652L35.6026 33.0701C35.7214 33.2437 35.7717 33.454 35.7397 33.6596L35.0313 38.8194C34.9582 39.3358 34.4418 39.6603 33.9436 39.5049L33.674 39.4181C33.1621 39.2536 32.632 39.6055 32.5817 40.1356L32.5269 40.7298C32.4857 41.1502 32.1384 41.4793 31.7134 41.4884L29.3414 41.5524L30.5571 42.8778L29.8487 42.9006L28.9118 43.4262C28.5279 43.641 28.3771 44.1209 28.5691 44.5185L28.8296 45.0578C28.8798 45.1629 28.9073 45.2771 28.9118 45.3959L28.9438 46.4837C28.9575 46.9544 28.5782 47.3474 28.1075 47.3474H9.29646C8.89428 47.3474 8.54695 47.0595 8.47382 46.6619L0.0143566 0.996314C-0.0816179 0.48445 0.315991 0.00914785 0.836995 0.00914785H10.7407C11.1428 0.00914785 11.4902 0.297071 11.5633 0.69468L19.5063 43.5496C19.5794 43.9472 19.9268 44.2351 20.329 44.2351H22.1068C22.5272 44.2351 22.8837 43.9243 22.9386 43.5039L34.0168 0.735812C34.0716 0.319922 34.4281 0.00457764 34.8485 0.00457764H47.9788C48.3992 0.00457764 48.7557 0.315352 48.8105 0.731242L59.9893 43.5039C60.0441 43.9198 60.4006 44.2305 60.8211 44.2305H62.5029C62.9051 44.2305 63.2524 43.9426 63.3255 43.545L71.3828 0.69011C71.456 0.292501 71.8033 0.00457764 72.2055 0.00457764H82.004C82.5296 0.00457764 82.9226 0.47988 82.8266 0.996314Z" fill="#202020"/>
<path d="M96.7978 0C98.6625 0 100.175 0.603268 101.341 1.8098C102.506 3.01634 103.086 4.53365 103.086 6.3526C103.086 8.17154 102.501 9.62487 101.341 10.8314C100.175 12.0379 98.6625 12.6412 96.7978 12.6412C94.9332 12.6412 93.4616 12.0379 92.255 10.8314C91.0485 9.62487 90.4452 8.13041 90.4452 6.3526C90.4452 4.57478 91.0485 3.07118 92.255 1.8418C93.4616 0.616979 94.9789 0 96.7978 0Z" fill="#B74752"/>
<path d="M110.586 38.8331C110.586 44.5048 106.304 47.3429 97.7347 47.3429C92.7257 47.3429 89.0193 46.3557 86.6154 44.3814C84.4125 42.5716 83.2197 40.0854 83.0323 36.9136C83.0049 36.4292 83.3888 36.0179 83.8687 36.0179H89.778C90.1984 36.0179 90.5686 36.3652 90.6097 36.7857C90.9388 39.9528 93.3701 41.5341 97.9038 41.5341C101.309 41.5341 103.009 40.5972 103.009 38.7189C103.009 37.7408 102.579 37.0005 101.72 36.4886C100.861 35.9813 99.316 35.3735 97.0857 34.6697C96.5007 34.5143 96.0483 34.3772 95.7375 34.2583C91.8665 32.965 89.3209 31.9504 88.1098 31.2054C85.6465 29.6424 84.3942 27.5081 84.3531 24.8117C84.3531 22.2707 85.4088 20.2826 87.5203 18.8567C89.6317 17.4308 92.5841 16.7133 96.3819 16.7133C100.879 16.7133 104.206 17.7005 106.359 19.6748C108.287 21.4435 109.352 23.6189 109.549 26.1919C109.585 26.6901 109.211 27.0968 108.708 27.0968H102.803C102.387 27.0968 102.022 26.754 101.971 26.3382C101.67 23.7926 99.7867 22.5175 96.3225 22.5175C93.3884 22.5175 91.9214 23.3401 91.9214 24.9808C91.9214 25.8811 92.447 26.6032 93.5073 27.1517C94.563 27.7001 96.4596 28.4222 99.1972 29.3225C103.109 30.6113 105.632 31.5893 106.765 32.2566C109.306 33.8196 110.577 36.0133 110.577 38.8286L110.586 38.8331Z" fill="#202020"/>
<path d="M140 11.4484V17.801C140 18.2671 139.621 18.6465 139.155 18.6465H129.306C128.84 18.6465 128.46 19.0258 128.46 19.492V46.4608C128.46 46.927 128.081 47.3063 127.615 47.3063H120.056C119.589 47.3063 119.21 46.927 119.21 46.4608V19.4965C119.21 19.0304 118.831 18.651 118.365 18.651H111.742C111.276 18.651 110.897 18.2717 110.897 17.8056V11.453C110.897 10.9868 111.276 10.6075 111.742 10.6075H118.365C118.831 10.6075 119.21 10.2281 119.21 9.76198V0.84549C119.21 0.379328 119.589 0 120.056 0H127.615C128.081 0 128.46 0.379328 128.46 0.84549V9.75741C128.46 10.2236 128.84 10.6029 129.306 10.6029H139.155C139.621 10.6029 140 10.9822 140 11.4484Z" fill="#202020"/>
</svg>
